<?xml version="1.0" standalone="no"?>
<!DOCTYPE svg PUBLIC "-//W3C//DTD SVG 20010904//EN"
 "http://www.w3.org/TR/2001/REC-SVG-20010904/DTD/svg10.dtd">
<svg version="1.0" xmlns="http://www.w3.org/2000/svg"
 width="521.000000pt" height="490.000000pt" viewBox="0 0 521.000000 490.000000"
 preserveAspectRatio="xMidYMid meet">

<g transform="translate(0.000000,490.000000) scale(0.100000,-0.100000)"
fill="#000000" stroke="none">
<path d="M2880 4044 c-14 -14 -56 -48 -93 -74 -55 -39 -80 -50 -135 -59 -69
-12 -213 -11 -206 1 2 3 -10 11 -26 17 -22 7 -29 7 -24 -1 4 -5 1 -14 -6 -18
-19 -12 84 -43 170 -51 l75 -7 -90 2 c-74 2 -101 8 -150 31 -88 41 -104 53
-98 75 3 11 9 17 14 15 4 -3 6 -11 3 -18 -2 -7 9 -20 25 -30 36 -21 41 -21 41
1 0 9 -17 26 -38 38 -40 21 -64 22 -56 1 3 -8 -13 -12 -53 -13 -32 0 -45 1
-30 3 20 3 27 9 23 19 -3 8 -2 12 3 9 5 -3 12 -1 16 5 3 5 16 10 28 11 12 0
17 3 10 5 -20 9 -173 -24 -294 -62 -124 -39 -311 -125 -373 -171 -35 -27 -38
-34 -42 -86 -16 -207 -148 -342 -358 -363 -46 -5 -66 -11 -66 -20 0 -9 11 -14
29 -14 17 0 32 -4 36 -9 3 -6 -19 -42 -50 -82 l-55 -71 0 99 0 99 -53 17
c-139 44 -259 179 -274 308 l-6 49 -107 0 c-59 0 -109 -2 -112 -5 -9 -9 11
-118 34 -180 29 -82 88 -172 152 -233 29 -28 56 -59 60 -69 6 -14 9 -15 15 -4
5 7 11 9 14 5 3 -5 -1 -14 -8 -21 -11 -10 -15 -10 -19 0 -8 20 -24 -12 -19
-37 3 -15 2 -17 -5 -8 -6 10 -15 -1 -31 -38 -12 -29 -20 -58 -17 -66 3 -8 2
-13 -3 -9 -12 7 -59 -188 -73 -303 -14 -110 -14 -436 0 -522 40 -248 58 -331
101 -458 l47 -143 -30 -26 c-199 -166 -274 -448 -175 -662 89 -193 238 -317
430 -357 60 -13 85 -13 134 -4 151 28 264 86 359 184 l51 52 109 -52 c116 -56
202 -83 356 -111 79 -14 161 -17 490 -17 263 -1 430 3 500 12 183 22 387 80
513 144 l38 19 75 -70 c235 -219 546 -218 770 4 115 115 174 251 174 403 0
159 -54 296 -160 403 -36 36 -76 72 -89 80 l-24 15 31 54 c100 179 157 486
150 800 l-4 145 -2 -167 c-1 -104 -6 -168 -12 -168 -5 0 -10 -23 -10 -51 0
-31 -4 -48 -10 -44 -12 8 -13 3 0 -29 6 -16 6 -35 0 -48 -7 -18 -9 -19 -9 -5
-1 9 -6 17 -12 17 -6 0 -9 -7 -5 -15 3 -9 0 -15 -10 -15 -10 0 -14 6 -10 15 3
8 1 15 -5 15 -5 0 -26 16 -45 35 -29 30 -33 39 -23 51 6 8 10 16 7 19 -2 2
-19 -21 -37 -53 -24 -42 -31 -64 -27 -86 5 -23 4 -26 -8 -17 -11 9 -17 6 -30
-14 -9 -14 -14 -30 -11 -35 3 -6 -1 -7 -9 -4 -9 3 -16 2 -16 -4 0 -15 -131
-180 -178 -226 -23 -22 -39 -43 -36 -48 3 -4 -3 -8 -13 -8 -14 0 -15 -2 -5 -9
10 -6 8 -10 -11 -15 -14 -3 -39 -22 -57 -42 -17 -20 -34 -34 -36 -31 -6 6 54
83 137 178 97 110 214 282 272 402 94 192 134 388 124 612 -3 72 -8 141 -12
155 -3 17 0 14 11 -10 9 -19 18 -46 19 -60 1 -14 8 -38 15 -55 7 -17 13 -80
14 -141 0 -62 4 -107 8 -100 5 7 8 6 8 -4 1 -34 20 16 20 52 0 90 -82 404
-131 499 -10 21 -19 44 -19 51 0 8 23 31 50 51 101 75 185 239 203 395 l5 42
-83 0 c-45 0 -96 -3 -112 -6 -28 -5 -31 -10 -36 -54 -11 -92 -76 -189 -160
-241 -29 -17 -54 -33 -56 -35 -2 -2 4 -15 13 -29 10 -15 15 -33 12 -41 -3 -8
-2 -13 3 -10 26 16 81 -237 81 -372 0 -115 -16 -236 -41 -318 -52 -169 -206
-457 -314 -589 -23 -27 -49 -61 -58 -75 -35 -51 -15 -8 26 57 81 127 108 206
133 392 16 127 18 392 3 476 -6 33 -14 150 -18 260 l-6 200 -60 6 c-113 11
-220 78 -283 177 -34 52 -62 139 -62 188 0 38 -43 77 -183 168 -106 70 -206
117 -340 161 -154 50 -159 50 -187 19z m145 -51 c28 -9 46 -18 40 -19 -5 -2
-44 7 -85 21 -41 14 -59 22 -40 19 19 -3 58 -13 85 -21z m-175 -24 c-49 -43
-110 -83 -110 -71 0 4 22 21 48 38 26 16 46 36 44 43 -1 7 1 10 6 7 5 -3 18 1
28 9 37 28 28 13 -16 -26z m-687 -26 c-7 -2 -19 -2 -25 0 -7 3 -2 5 12 5 14 0
19 -2 13 -5z m-46 -9 c-3 -3 -12 -4 -19 -1 -8 3 -5 6 6 6 11 1 17 -2 13 -5z
m-82 -24 c-27 -12 -43 -12 -25 0 8 5 22 9 30 9 10 0 8 -3 -5 -9z m-90 -30
c-27 -11 -54 -20 -60 -19 -15 0 78 38 95 38 8 0 -7 -9 -35 -19z m775 1 c-8 -5
-31 -11 -50 -14 -35 -6 -35 -6 5 8 46 15 67 18 45 6z m595 -19 c-3 -3 -11 0
-18 7 -9 10 -8 11 6 5 10 -3 15 -9 12 -12z m55 -28 c0 -2 -9 0 -20 6 -11 6
-20 13 -20 16 0 2 9 0 20 -6 11 -6 20 -13 20 -16z m96 -55 c8 -13 -21 1 -51
26 -19 15 -18 15 12 1 17 -9 35 -21 39 -27z m-716 1 c186 -17 341 -69 519
-175 258 -154 482 -426 584 -710 55 -154 106 -476 81 -516 -4 -7 -9 -37 -11
-67 -2 -31 -6 -58 -9 -61 -4 -3 -4 20 -2 52 4 54 4 56 -13 41 -10 -9 -20 -38
-24 -71 -20 -159 -125 -402 -240 -554 -189 -250 -485 -440 -788 -504 -105 -23
-97 -32 -97 113 l0 127 -173 1 c-157 0 -180 3 -260 27 -48 15 -119 43 -158 62
-38 20 -75 33 -81 29 -6 -4 -8 -3 -5 3 4 6 -17 25 -46 43 -29 19 -95 77 -148
129 -174 173 -274 364 -296 566 -5 42 -8 53 -13 36 -5 -23 -9 -24 -75 -22 -39
1 -71 7 -73 12 -5 12 -42 12 -42 -1 0 -5 -9 -10 -20 -10 -13 0 -20 7 -20 19 0
10 -9 21 -19 24 -12 3 -24 19 -30 38 -5 19 -10 26 -10 17 -1 -26 -21 -22 -22
5 0 12 -3 16 -6 10 -2 -7 -9 -13 -15 -13 -11 0 -7 114 7 260 l6 55 -20 -37
c-34 -61 -69 -198 -81 -321 -7 -72 -10 -265 -9 -499 2 -211 -1 -465 -5 -566
-7 -158 -11 -182 -25 -181 -11 0 -12 2 -3 6 16 6 17 439 1 449 -5 3 -53 7
-106 9 -60 3 -99 8 -104 16 -4 6 -5 -10 -3 -37 l3 -49 -13 53 c-8 29 -17 114
-20 190 -4 75 -10 169 -13 207 -6 61 -8 66 -14 35 l-6 -35 -2 32 c0 17 4 35
10 38 6 4 8 13 5 21 -8 20 11 117 41 209 56 171 159 360 293 540 79 105 227
275 240 275 5 0 25 28 46 63 52 90 177 240 255 307 130 112 243 177 421 244
188 70 357 88 608 66z m-1885 -600 c-3 -5 -13 -10 -21 -10 -8 0 -12 5 -9 10 3
6 13 10 21 10 8 0 12 -4 9 -10z m152 -36 c-3 -3 -12 -4 -19 -1 -8 3 -5 6 6 6
11 1 17 -2 13 -5z m58 -14 l26 -10 -38 -45 c-37 -45 -53 -55 -53 -34 0 5 5 7
10 4 14 -9 12 19 -2 33 -8 8 -9 12 -1 12 6 0 13 -6 16 -12 3 -9 8 -10 14 -3 6
6 5 19 -3 35 -8 14 -14 20 -14 13 0 -7 -7 -10 -17 -6 -15 6 -15 7 3 14 26 10
29 10 59 -1z m-75 -135 c-7 -9 -15 -13 -17 -11 -7 7 7 26 19 26 6 0 6 -6 -2
-15z m-40 -55 c-24 -34 -26 -35 -36 -18 -4 6 -3 8 3 5 5 -4 16 5 23 18 7 14
17 25 22 25 5 0 0 -13 -12 -30z m-48 -72 c-11 -17 -27 -33 -36 -34 -9 -1 -14
2 -10 7 3 5 9 7 14 4 7 -4 20 17 19 31 -1 6 21 23 29 24 2 0 -5 -14 -16 -32z
m-41 -71 c-10 -9 -11 -8 -5 6 3 10 9 15 12 12 3 -3 0 -11 -7 -18z m-28 -52
c-3 -9 -8 -14 -10 -11 -3 3 -2 9 2 15 9 16 15 13 8 -4z m3497 -587 c0 -25 -3
-29 -10 -18 -8 12 -10 12 -10 1 0 -8 -2 -12 -5 -9 -6 5 15 58 22 58 1 0 3 -15
3 -32z m-3043 -562 c156 -42 246 -132 298 -299 37 -124 233 -333 433 -461 99
-64 256 -139 375 -177 53 -18 96 -34 94 -36 -7 -7 -185 37 -251 61 -89 34
-216 99 -286 146 -84 57 -220 180 -275 248 -28 34 -57 62 -66 62 -25 0 -48 32
-65 89 -50 169 -180 292 -323 307 -59 7 -61 8 -61 35 0 40 40 48 127 25z
m2693 -22 c7 -30 6 -30 -34 -32 -84 -5 -152 -38 -229 -111 -67 -63 -96 -124
-101 -208 l-4 -68 -104 -57 c-269 -148 -482 -194 -848 -185 -182 5 -219 9
-330 35 -69 17 -145 38 -170 47 -63 22 -201 87 -196 92 2 3 22 -5 45 -17 23
-11 41 -18 41 -16 0 2 38 -9 85 -25 164 -55 261 -70 500 -76 174 -4 243 -2
332 11 205 30 378 86 526 170 l72 41 6 80 c7 87 22 132 68 198 57 84 200 159
291 154 41 -2 45 -4 50 -33z m34 -9 c-4 -8 -8 -15 -10 -15 -2 0 -4 7 -4 15 0
8 4 15 10 15 5 0 7 -7 4 -15z"/>
<path d="M2420 3425 c-85 -16 -229 -64 -305 -102 -82 -41 -165 -106 -251 -194
-152 -158 -225 -294 -269 -507 -22 -107 -20 -123 22 -136 16 -5 23 -2 26 11 3
10 5 -18 6 -62 6 -382 278 -743 651 -863 114 -37 182 -45 323 -39 138 5 197
18 330 72 201 81 387 263 484 473 38 81 73 227 73 303 0 63 12 143 19 131 4
-6 15 -6 30 -1 22 9 23 13 18 67 -7 68 -58 224 -100 307 -127 255 -347 438
-624 521 -110 33 -313 42 -433 19z m385 -329 c191 -66 342 -219 412 -418 23
-65 26 -89 27 -208 0 -164 -23 -259 -90 -374 -56 -95 -118 -158 -214 -218
-103 -63 -190 -89 -325 -95 -210 -10 -351 43 -490 182 -138 138 -195 265 -203
451 -6 152 10 235 66 348 84 168 241 297 424 346 110 30 285 24 393 -14z"/>
<path d="M1061 3104 c0 -11 3 -14 6 -6 3 7 2 16 -1 19 -3 4 -6 -2 -5 -13z"/>
<path d="M4553 3723 c9 -2 23 -2 30 0 6 3 -1 5 -18 5 -16 0 -22 -2 -12 -5z"/>
<path d="M4091 3304 c0 -11 3 -14 6 -6 3 7 2 16 -1 19 -3 4 -6 -2 -5 -13z"/>
<path d="M4083 3203 c-7 -2 -13 -16 -13 -30 0 -19 4 -24 16 -19 9 3 23 6 32 7
14 0 13 2 -3 9 -19 8 -19 9 3 9 13 1 22 7 22 16 0 15 -31 19 -57 8z"/>
<path d="M4451 2452 c-1 -7 -6 -10 -12 -6 -7 4 -9 -1 -7 -12 3 -11 -2 -31 -9
-46 -12 -24 -12 -28 2 -28 8 0 15 8 15 17 0 13 3 14 12 5 19 -19 38 -14 38 9
0 11 -4 18 -10 14 -5 -3 -14 9 -19 27 -5 18 -10 27 -10 20z"/>
<path d="M2009 551 c10 -7 11 -10 0 -16 -20 -13 -89 -13 -89 -1 0 6 -5 4 -10
-4 -5 -8 -10 -10 -10 -5 0 6 -5 3 -11 -5 -8 -11 -12 -12 -15 -3 -4 10 -10 10
-27 0 -12 -7 -25 -16 -29 -22 -5 -6 -12 -4 -18 5 -6 9 -13 11 -17 5 -5 -5 -17
-10 -28 -10 -11 1 -31 -6 -44 -14 -23 -15 -23 -14 -17 9 6 19 5 22 -3 10 -10
-13 -12 -13 -22 0 -8 12 -9 10 -4 -7 4 -13 2 -23 -4 -23 -5 0 -17 -3 -27 -7
-10 -4 -15 -2 -11 4 3 5 0 10 -8 10 -8 0 -12 -5 -9 -11 3 -6 -2 -2 -11 9 l-17
20 4 -20 c3 -17 -3 -20 -40 -20 -33 0 -41 -3 -37 -15 3 -9 -1 -7 -10 4 -8 11
-15 15 -15 8 0 -6 -9 -9 -20 -7 -30 6 -52 -5 -46 -22 4 -8 1 -11 -5 -8 -6 4
-8 14 -4 22 4 12 2 13 -8 5 -10 -8 -17 -8 -24 -1 -8 8 -13 7 -18 -2 -6 -8 -4
-10 6 -4 11 6 12 5 2 -6 -10 -10 -16 -10 -25 -1 -14 14 -48 16 -48 2 0 -5 8
-7 18 -3 9 3 14 2 10 -2 -11 -12 -68 -14 -61 -2 4 6 -1 8 -11 4 -10 -4 -19 -7
-22 -7 -2 0 -1 -6 2 -14 4 -10 -2 -12 -20 -9 -14 3 -23 9 -20 14 3 5 10 7 15
4 5 -4 9 2 9 12 -1 15 -4 14 -23 -7 -12 -14 -26 -26 -30 -27 -60 -11 189 -13
1394 -11 778 0 1398 3 1380 5 -19 3 -41 12 -48 21 -12 16 -13 16 -7 0 7 -21
-21 -26 -29 -6 -4 10 -6 10 -6 0 -1 -10 -5 -9 -17 3 -12 11 -20 13 -27 6 -17
-17 -31 -13 -17 4 11 13 10 14 -4 9 -23 -9 -52 16 -34 28 10 7 10 9 -2 5 -8
-2 -14 -11 -14 -20 1 -9 -2 -14 -7 -11 -5 3 -9 12 -9 20 0 8 -5 14 -11 14 -5
0 -7 -4 -4 -10 3 -6 -1 -7 -9 -4 -9 3 -13 10 -10 15 8 13 -10 11 -25 -3 -10
-11 -11 -9 -5 7 6 16 4 18 -6 8 -11 -10 -17 -9 -32 4 -16 15 -18 14 -27 -8 -7
-17 -10 -19 -10 -6 -1 9 -8 17 -17 17 -8 0 -12 5 -9 10 3 6 1 10 -4 10 -17 0
-13 -18 7 -29 9 -6 14 -11 9 -11 -11 0 -51 23 -59 35 -8 11 -58 15 -58 5 0 -3
-9 -6 -20 -6 -11 0 -20 4 -20 9 0 5 -11 7 -25 5 -23 -5 -30 2 -26 25 1 5 -4 5
-10 1 -17 -10 -99 -12 -99 -2 0 5 -11 6 -24 2 -14 -3 -35 -2 -48 3 -16 5 15
10 97 13 66 4 -193 7 -575 8 -391 1 -689 -2 -681 -7z m1131 -9 c0 -9 -47 -8
-57 1 -3 4 8 7 25 7 18 0 32 -4 32 -8z m350 -52 c0 -5 -4 -10 -10 -10 -5 0
-10 5 -10 10 0 6 5 10 10 10 6 0 10 -4 10 -10z m114 -26 c3 -8 2 -12 -4 -9 -6
3 -10 10 -10 16 0 14 7 11 14 -7z m211 -64 c3 -5 1 -10 -4 -10 -6 0 -11 5 -11
10 0 6 2 10 4 10 3 0 8 -4 11 -10z"/>
<path d="M3407 519 c7 -7 15 -10 18 -7 3 3 -2 9 -12 12 -14 6 -15 5 -6 -5z"/>
<path d="M1550 470 c0 -5 5 -10 11 -10 5 0 7 5 4 10 -3 6 -8 10 -11 10 -2 0
-4 -4 -4 -10z"/>
<path d="M1425 460 c-3 -6 1 -7 9 -4 18 7 21 14 7 14 -6 0 -13 -4 -16 -10z"/>
<path d="M1108 383 c7 -3 16 -2 19 1 4 3 -2 6 -13 5 -11 0 -14 -3 -6 -6z"/>
</g>
</svg>
